{
  "asset": { "version": "2.0", "generator": "Toaster physics proxy fixture" },
  "scene": 0,
  "scenes": [{ "nodes": [0] }],
  "nodes": [{ "mesh": 0, "translation": [1.2, 4.0, -3.2], "scale": [0.6, 0.6, 0.6] }],
  "meshes": [{
    "name": "FacetedOrb",
    "primitives": [{ "attributes": { "POSITION": 0 }, "indices": 1, "material": 0, "mode": 4 }]
  }],
  "materials": [{
    "name": "OrbBlue",
    "pbrMetallicRoughness": { "baseColorFactor": [0.08, 0.42, 0.92, 1.0] }
  }],
  "accessors": [
    { "bufferView": 0, "componentType": 5126, "count": 4, "type": "VEC3", "min": [-1,-1,-1], "max": [1,1,1] },
    { "bufferView": 1, "componentType": 5123, "count": 12, "type": "SCALAR" }
  ],
  "bufferViews": [
    { "buffer": 0, "byteOffset": 0, "byteLength": 48, "target": 34962 },
    { "buffer": 0, "byteOffset": 48, "byteLength": 24, "target": 34963 }
  ],
  "buffers": [{
    "byteLength": 72,
    "uri": "data:application/octet-stream;base64,"
  }]
}
