{
  "asset": { "version": "2.0", "generator": "Toaster physics proxy fixture" },
  "scene": 0,
  "scenes": [{ "nodes": [0] }],
  "nodes": [{ "mesh": 0, "translation": [-2.4, 0.65, -4.6], "scale": [0.7, 0.5, 0.7] }],
  "meshes": [{
    "name": "KinematicPusher",
    "primitives": [{ "attributes": { "POSITION": 0 }, "indices": 1, "material": 0, "mode": 4 }]
  }],
  "materials": [{
    "name": "PusherTeal",
    "pbrMetallicRoughness": { "baseColorFactor": [0.05, 0.65, 0.72, 1.0] }
  }],
  "accessors": [
    { "bufferView": 0, "componentType": 5126, "count": 8, "type": "VEC3", "min": [-1,-1,-1], "max": [1,1,1] },
    { "bufferView": 1, "componentType": 5123, "count": 36, "type": "SCALAR" }
  ],
  "bufferViews": [
    { "buffer": 0, "byteOffset": 0, "byteLength": 96, "target": 34962 },
    { "buffer": 0, "byteOffset": 96, "byteLength": 72, "target": 34963 }
  ],
  "buffers": [{
    "byteLength": 168,
    "uri": "data:application/octet-stream;base64,"
  }]
}
