{"asset":{"version":"2.0","generator":"Toaster sunset-room asset generator"},"scene":0,"scenes":[{"nodes":[0]}],"nodes":[{"name":"SunsetRoomStatic","mesh":0}],"meshes":[{"name":"SunsetRoomStatic","primitives":[{"attributes":{"POSITION":0,"NORMAL":1},"indices":2,"material":0,"mode":4,"extras":{"name":"bed_headboard"}},{"attributes":{"POSITION":3,"NORMAL":4},"indices":5,"material":10,"mode":4,"extras":{"name":"bed_frame_left"}},{"attributes":{"POSITION":6,"NORMAL":7},"indices":8,"material":10,"mode":4,"extras":{"name":"bed_frame_right"}},{"attributes":{"POSITION":9,"NORMAL":10},"indices":11,"material":0,"mode":4,"extras":{"name":"bed_footboard"}},{"attributes":{"POSITION":12,"NORMAL":13},"indices":14,"material":2,"mode":4,"extras":{"name":"bed_pillow_left"}},{"attributes":{"POSITION":15,"NORMAL":16},"indices":17,"material":2,"mode":4,"extras":{"name":"bed_pillow_right"}},{"attributes":{"POSITION":18,"NORMAL":19},"indices":20,"material":3,"mode":4,"extras":{"name":"bed_duvet_fold"}},{"attributes":{"POSITION":21,"NORMAL":22},"indices":23,"material":5,"mode":4,"extras":{"name":"rug"}},{"attributes":{"POSITION":24,"NORMAL":25},"indices":26,"material":0,"mode":4,"extras":{"name":"bench_leg_-2.35_-1.03"}},{"attributes":{"POSITION":27,"NORMAL":28},"indices":29,"material":0,"mode":4,"extras":{"name":"bench_leg_-2.35_-0.57"}},{"attributes":{"POSITION":30,"NORMAL":31},"indices":32,"material":0,"mode":4,"extras":{"name":"bench_leg_-0.65_-1.03"}},{"attributes":{"POSITION":33,"NORMAL":34},"indices":35,"material":0,"mode":4,"extras":{"name":"bench_leg_-0.65_-0.57"}},{"attributes":{"POSITION":36,"NORMAL":37},"indices":38,"material":0,"mode":4,"extras":{"name":"side_leg_0.62_-3.64"}},{"attributes":{"POSITION":39,"NORMAL":40},"indices":41,"material":0,"mode":4,"extras":{"name":"side_leg_0.62_-2.76"}},{"attributes":{"POSITION":42,"NORMAL":43},"indices":44,"material":0,"mode":4,"extras":{"name":"side_leg_1.78_-3.64"}},{"attributes":{"POSITION":45,"NORMAL":46},"indices":47,"material":0,"mode":4,"extras":{"name":"side_leg_1.78_-2.76"}},{"attributes":{"POSITION":48,"NORMAL":49},"indices":50,"material":4,"mode":4,"extras":{"name":"console_foot_-2.38"}},{"attributes":{"POSITION":51,"NORMAL":52},"indices":53,"material":4,"mode":4,"extras":{"name":"console_foot_-0.98"}},{"attributes":{"POSITION":54,"NORMAL":55},"indices":56,"material":4,"mode":4,"extras":{"name":"console_pull_-2.08"}},{"attributes":{"POSITION":57,"NORMAL":58},"indices":59,"material":4,"mode":4,"extras":{"name":"console_pull_-1.28"}},{"attributes":{"POSITION":60,"NORMAL":61},"indices":62,"material":0,"mode":4,"extras":{"name":"window_sill"}},{"attributes":{"POSITION":63,"NORMAL":64},"indices":65,"material":0,"mode":4,"extras":{"name":"window_head"}},{"attributes":{"POSITION":66,"NORMAL":67},"indices":68,"material":0,"mode":4,"extras":{"name":"window_left"}},{"attributes":{"POSITION":69,"NORMAL":70},"indices":71,"material":0,"mode":4,"extras":{"name":"window_right"}},{"attributes":{"POSITION":72,"NORMAL":73},"indices":74,"material":0,"mode":4,"extras":{"name":"window_mullion"}},{"attributes":{"POSITION":75,"NORMAL":76},"indices":77,"material":0,"mode":4,"extras":{"name":"window_transom"}},{"attributes":{"POSITION":78,"NORMAL":79},"indices":80,"material":3,"mode":4,"extras":{"name":"curtain_left"}},{"attributes":{"POSITION":81,"NORMAL":82},"indices":83,"material":3,"mode":4,"extras":{"name":"curtain_right"}},{"attributes":{"POSITION":84,"NORMAL":85},"indices":86,"material":4,"mode":4,"extras":{"name":"floor_lamp_stem"}},{"attributes":{"POSITION":87,"NORMAL":88},"indices":89,"material":4,"mode":4,"extras":{"name":"floor_lamp_base"}},{"attributes":{"POSITION":90,"NORMAL":91},"indices":92,"material":4,"mode":4,"extras":{"name":"table_lamp_stem"}},{"attributes":{"POSITION":93,"NORMAL":94},"indices":95,"material":6,"mode":4,"extras":{"name":"book_stack_blue"}},{"attributes":{"POSITION":96,"NORMAL":97},"indices":98,"material":7,"mode":4,"extras":{"name":"book_stack_ochre"}},{"attributes":{"POSITION":99,"NORMAL":100},"indices":101,"material":8,"mode":4,"extras":{"name":"ceramic_vase"}},{"attributes":{"POSITION":102,"NORMAL":103},"indices":104,"material":8,"mode":4,"extras":{"name":"plant_pot"}},{"attributes":{"POSITION":105,"NORMAL":106},"indices":107,"material":9,"mode":4,"extras":{"name":"plant_stem"}},{"attributes":{"POSITION":108,"NORMAL":109},"indices":110,"material":9,"mode":4,"extras":{"name":"plant_leaf_0"}},{"attributes":{"POSITION":111,"NORMAL":112},"indices":113,"material":9,"mode":4,"extras":{"name":"plant_leaf_1"}},{"attributes":{"POSITION":114,"NORMAL":115},"indices":116,"material":9,"mode":4,"extras":{"name":"plant_leaf_2"}},{"attributes":{"POSITION":117,"NORMAL":118},"indices":119,"material":9,"mode":4,"extras":{"name":"plant_leaf_3"}},{"attributes":{"POSITION":120,"NORMAL":121},"indices":122,"material":3,"mode":4,"extras":{"name":"woven_basket"}},{"attributes":{"POSITION":123,"NORMAL":124},"indices":125,"material":6,"mode":4,"extras":{"name":"console_book_blue"}},{"attributes":{"POSITION":126,"NORMAL":127},"indices":128,"material":7,"mode":4,"extras":{"name":"console_book_ochre"}}]}],"materials":[{"name":"wood","pbrMetallicRoughness":{"baseColorFactor":[0.22,0.075,0.025,1.0],"roughnessFactor":0.8}},{"name":"rust","pbrMetallicRoughness":{"baseColorFactor":[0.46,0.12,0.055,1.0],"roughnessFactor":0.8}},{"name":"cream","pbrMetallicRoughness":{"baseColorFactor":[0.78,0.66,0.5,1.0],"roughnessFactor":0.8}},{"name":"linen","pbrMetallicRoughness":{"baseColorFactor":[0.56,0.42,0.29,1.0],"roughnessFactor":0.8}},{"name":"brass","pbrMetallicRoughness":{"baseColorFactor":[0.62,0.34,0.08,1.0],"roughnessFactor":0.8}},{"name":"rug","pbrMetallicRoughness":{"baseColorFactor":[0.24,0.1,0.065,1.0],"roughnessFactor":0.8}},{"name":"book_blue","pbrMetallicRoughness":{"baseColorFactor":[0.045,0.14,0.3,1.0],"roughnessFactor":0.8}},{"name":"book_ochre","pbrMetallicRoughness":{"baseColorFactor":[0.58,0.29,0.045,1.0],"roughnessFactor":0.8}},{"name":"ceramic","pbrMetallicRoughness":{"baseColorFactor":[0.18,0.3,0.34,1.0],"roughnessFactor":0.8}},{"name":"leaf","pbrMetallicRoughness":{"baseColorFactor":[0.055,0.2,0.085,1.0],"roughnessFactor":0.8}},{"name":"dark","pbrMetallicRoughness":{"baseColorFactor":[0.035,0.025,0.022,1.0],"roughnessFactor":0.8}}],"buffers":[{"byteLength":32400,"uri":"data:application/octet-stream;base64,"}],"bufferViews":[{"buffer":0,"byteOffset":0,"byteLength":288,"target":34962},{"buffer":0,"byteOffset":288,"byteLength":288,"target":34962},{"buffer":0,"byteOffset":576,"byteLength":144,"target":34963},{"buffer":0,"byteOffset":720,"byteLength":288,"target":34962},{"buffer":0,"byteOffset":1008,"byteLength":288,"target":34962},{"buffer":0,"byteOffset":1296,"byteLength":144,"target":34963},{"buffer":0,"byteOffset":1440,"byteLength":288,"target":34962},{"buffer":0,"byteOffset":1728,"byteLength":288,"target":34962},{"buffer":0,"byteOffset":2016,"byteLength":144,"target":34963},{"buffer":0,"byteOffset":2160,"byteLength":288,"target":34962},{"buffer":0,"byteOffset":2448,"byteLength":288,"target":34962},{"buffer":0,"byteOffset":2736,"byteLength":144,"target":34963},{"buffer":0,"byteOffset":2880,"byteLength":288,"target":34962},{"buffer":0,"byteOffset":3168,"byteLength":288,"target":34962},{"buffer":0,"byteOffset":3456,"byteLength":144,"target":34963},{"buffer":0,"byteOffset":3600,"byteLength":288,"target":34962},{"buffer":0,"byteOffset":3888,"byteLength":288,"target":34962},{"buffer":0,"byteOffset":4176,"byteLength":144,"target":34963},{"buffer":0,"byteOffset":4320,"byteLength":288,"target":34962},{"buffer":0,"byteOffset":4608,"byteLength":288,"target":34962},{"buffer":0,"byteOffset":4896,"byteLength":144,"target":34963},{"buffer":0,"byteOffset":5040,"byteLength":288,"target":34962},{"buffer":0,"byteOffset":5328,"byteLength":288,"target":34962},{"buffer":0,"byteOffset":5616,"byteLength":144,"target":34963},{"buffer":0,"byteOffset":5760,"byteLength":288,"target":34962},{"buffer":0,"byteOffset":6048,"byteLength":288,"target":34962},{"buffer":0,"byteOffset":6336,"byteLength":144,"target":34963},{"buffer":0,"byteOffset":6480,"byteLength":288,"target":34962},{"buffer":0,"byteOffset":6768,"byteLength":288,"target":34962},{"buffer":0,"byteOffset":7056,"byteLength":144,"target":34963},{"buffer":0,"byteOffset":7200,"byteLength":288,"target":34962},{"buffer":0,"byteOffset":7488,"byteLength":288,"target":34962},{"buffer":0,"byteOffset":7776,"byteLength":144,"target":34963},{"buffer":0,"byteOffset":7920,"byteLength":288,"target":34962},{"buffer":0,"byteOffset":8208,"byteLength":288,"target":34962},{"buffer":0,"byteOffset":8496,"byteLength":144,"target":34963},{"buffer":0,"byteOffset":8640,"byteLength":288,"target":34962},{"buffer":0,"byteOffset":8928,"byteLength":288,"target":34962},{"buffer":0,"byteOffset":9216,"byteLength":144,"target":34963},{"buffer":0,"byteOffset":9360,"byteLength":288,"target":34962},{"buffer":0,"byteOffset":9648,"byteLength":288,"target":34962},{"buffer":0,"byteOffset":9936,"byteLength":144,"target":34963},{"buffer":0,"byteOffset":10080,"byteLength":288,"target":34962},{"buffer":0,"byteOffset":10368,"byteLength":288,"target":34962},{"buffer":0,"byteOffset":10656,"byteLength":144,"target":34963},{"buffer":0,"byteOffset":10800,"byteLength":288,"target":34962},{"buffer":0,"byteOffset":11088,"byteLength":288,"target":34962},{"buffer":0,"byteOffset":11376,"byteLength":144,"target":34963},{"buffer":0,"byteOffset":11520,"byteLength":288,"target":34962},{"buffer":0,"byteOffset":11808,"byteLength":288,"target":34962},{"buffer":0,"byteOffset":12096,"byteLength":144,"target":34963},{"buffer":0,"byteOffset":12240,"byteLength":288,"target":34962},{"buffer":0,"byteOffset":12528,"byteLength":288,"target":34962},{"buffer":0,"byteOffset":12816,"byteLength":144,"target":34963},{"buffer":0,"byteOffset":12960,"byteLength":288,"target":34962},{"buffer":0,"byteOffset":13248,"byteLength":288,"target":34962},{"buffer":0,"byteOffset":13536,"byteLength":144,"target":34963},{"buffer":0,"byteOffset":13680,"byteLength":288,"target":34962},{"buffer":0,"byteOffset":13968,"byteLength":288,"target":34962},{"buffer":0,"byteOffset":14256,"byteLength":144,"target":34963},{"buffer":0,"byteOffset":14400,"byteLength":288,"target":34962},{"buffer":0,"byteOffset":14688,"byteLength":288,"target":34962},{"buffer":0,"byteOffset":14976,"byteLength":144,"target":34963},{"buffer":0,"byteOffset":15120,"byteLength":288,"target":34962},{"buffer":0,"byteOffset":15408,"byteLength":288,"target":34962},{"buffer":0,"byteOffset":15696,"byteLength":144,"target":34963},{"buffer":0,"byteOffset":15840,"byteLength":288,"target":34962},{"buffer":0,"byteOffset":16128,"byteLength":288,"target":34962},{"buffer":0,"byteOffset":16416,"byteLength":144,"target":34963},{"buffer":0,"byteOffset":16560,"byteLength":288,"target":34962},{"buffer":0,"byteOffset":16848,"byteLength":288,"target":34962},{"buffer":0,"byteOffset":17136,"byteLength":144,"target":34963},{"buffer":0,"byteOffset":17280,"byteLength":288,"target":34962},{"buffer":0,"byteOffset":17568,"byteLength":288,"target":34962},{"buffer":0,"byteOffset":17856,"byteLength":144,"target":34963},{"buffer":0,"byteOffset":18000,"byteLength":288,"target":34962},{"buffer":0,"byteOffset":18288,"byteLength":288,"target":34962},{"buffer":0,"byteOffset":18576,"byteLength":144,"target":34963},{"buffer":0,"byteOffset":18720,"byteLength":288,"target":34962},{"buffer":0,"byteOffset":19008,"byteLength":288,"target":34962},{"buffer":0,"byteOffset":19296,"byteLength":144,"target":34963},{"buffer":0,"byteOffset":19440,"byteLength":288,"target":34962},{"buffer":0,"byteOffset":19728,"byteLength":288,"target":34962},{"buffer":0,"byteOffset":20016,"byteLength":144,"target":34963},{"buffer":0,"byteOffset":20160,"byteLength":288,"target":34962},{"buffer":0,"byteOffset":20448,"byteLength":288,"target":34962},{"buffer":0,"byteOffset":20736,"byteLength":144,"target":34963},{"buffer":0,"byteOffset":20880,"byteLength":288,"target":34962},{"buffer":0,"byteOffset":21168,"byteLength":288,"target":34962},{"buffer":0,"byteOffset":21456,"byteLength":144,"target":34963},{"buffer":0,"byteOffset":21600,"byteLength":288,"target":34962},{"buffer":0,"byteOffset":21888,"byteLength":288,"target":34962},{"buffer":0,"byteOffset":22176,"byteLength":144,"target":34963},{"buffer":0,"byteOffset":22320,"byteLength":288,"target":34962},{"buffer":0,"byteOffset":22608,"byteLength":288,"target":34962},{"buffer":0,"byteOffset":22896,"byteLength":144,"target":34963},{"buffer":0,"byteOffset":23040,"byteLength":288,"target":34962},{"buffer":0,"byteOffset":23328,"byteLength":288,"target":34962},{"buffer":0,"byteOffset":23616,"byteLength":144,"target":34963},{"buffer":0,"byteOffset":23760,"byteLength":576,"target":34962},{"buffer":0,"byteOffset":24336,"byteLength":576,"target":34962},{"buffer":0,"byteOffset":24912,"byteLength":288,"target":34963},{"buffer":0,"byteOffset":25200,"byteLength":288,"target":34962},{"buffer":0,"byteOffset":25488,"byteLength":288,"target":34962},{"buffer":0,"byteOffset":25776,"byteLength":144,"target":34963},{"buffer":0,"byteOffset":25920,"byteLength":288,"target":34962},{"buffer":0,"byteOffset":26208,"byteLength":288,"target":34962},{"buffer":0,"byteOffset":26496,"byteLength":144,"target":34963},{"buffer":0,"byteOffset":26640,"byteLength":288,"target":34962},{"buffer":0,"byteOffset":26928,"byteLength":288,"target":34962},{"buffer":0,"byteOffset":27216,"byteLength":144,"target":34963},{"buffer":0,"byteOffset":27360,"byteLength":288,"target":34962},{"buffer":0,"byteOffset":27648,"byteLength":288,"target":34962},{"buffer":0,"byteOffset":27936,"byteLength":144,"target":34963},{"buffer":0,"byteOffset":28080,"byteLength":288,"target":34962},{"buffer":0,"byteOffset":28368,"byteLength":288,"target":34962},{"buffer":0,"byteOffset":28656,"byteLength":144,"target":34963},{"buffer":0,"byteOffset":28800,"byteLength":288,"target":34962},{"buffer":0,"byteOffset":29088,"byteLength":288,"target":34962},{"buffer":0,"byteOffset":29376,"byteLength":144,"target":34963},{"buffer":0,"byteOffset":29520,"byteLength":576,"target":34962},{"buffer":0,"byteOffset":30096,"byteLength":576,"target":34962},{"buffer":0,"byteOffset":30672,"byteLength":288,"target":34963},{"buffer":0,"byteOffset":30960,"byteLength":288,"target":34962},{"buffer":0,"byteOffset":31248,"byteLength":288,"target":34962},{"buffer":0,"byteOffset":31536,"byteLength":144,"target":34963},{"buffer":0,"byteOffset":31680,"byteLength":288,"target":34962},{"buffer":0,"byteOffset":31968,"byteLength":288,"target":34962},{"buffer":0,"byteOffset":32256,"byteLength":144,"target":34963}],"accessors":[{"bufferView":0,"componentType":5126,"count":24,"type":"VEC3","min":[-3.025,0.71,-5.11],"max":[0.02499999999999991,2.33,-4.8500000000000005]},{"bufferView":1,"componentType":5126,"count":24,"type":"VEC3"},{"bufferView":2,"componentType":5125,"count":36,"type":"SCALAR"},{"bufferView":3,"componentType":5126,"count":24,"type":"VEC3","min":[-3.02,0.27,-5.005],"max":[-2.8400000000000003,0.69,-1.3550000000000002]},{"bufferView":4,"componentType":5126,"count":24,"type":"VEC3"},{"bufferView":5,"componentType":5125,"count":36,"type":"SCALAR"},{"bufferView":6,"componentType":5126,"count":24,"type":"VEC3","min":[-0.16,0.27,-5.005],"max":[0.01999999999999999,0.69,-1.3550000000000002]},{"bufferView":7,"componentType":5126,"count":24,"type":"VEC3"},{"bufferView":8,"componentType":5125,"count":36,"type":"SCALAR"},{"bufferView":9,"componentType":5126,"count":24,"type":"VEC3","min":[-3.01,0.31,-1.48],"max":[0.010000000000000009,0.8899999999999999,-1.2799999999999998]},{"bufferView":10,"componentType":5126,"count":24,"type":"VEC3"},{"bufferView":11,"componentType":5125,"count":36,"type":"SCALAR"},{"bufferView":12,"componentType":5126,"count":24,"type":"VEC3","min":[-2.675,1.04,-4.859999999999999],"max":[-1.625,1.3199999999999998,-4.08]},{"bufferView":13,"componentType":5126,"count":24,"type":"VEC3"},{"bufferView":14,"componentType":5125,"count":36,"type":"SCALAR"},{"bufferView":15,"componentType":5126,"count":24,"type":"VEC3","min":[-1.375,1.04,-4.859999999999999],"max":[-0.32499999999999996,1.3199999999999998,-4.08]},{"bufferView":16,"componentType":5126,"count":24,"type":"VEC3"},{"bufferView":17,"componentType":5125,"count":36,"type":"SCALAR"},{"bufferView":18,"componentType":5126,"count":24,"type":"VEC3","min":[-2.8600000000000003,0.96,-2.795],"max":[-0.1399999999999999,1.04,-1.445]},{"bufferView":19,"componentType":5126,"count":24,"type":"VEC3"},{"bufferView":20,"componentType":5125,"count":36,"type":"SCALAR"},{"bufferView":21,"componentType":5126,"count":24,"type":"VEC3","min":[-3.025,0.0005000000000000004,-3.125],"max":[2.3249999999999997,0.0555,0.2250000000000001]},{"bufferView":22,"componentType":5126,"count":24,"type":"VEC3"},{"bufferView":23,"componentType":5125,"count":36,"type":"SCALAR"},{"bufferView":24,"componentType":5126,"count":24,"type":"VEC3","min":[-2.41,0.0,-1.09],"max":[-2.29,0.56,-0.97]},{"bufferView":25,"componentType":5126,"count":24,"type":"VEC3"},{"bufferView":26,"componentType":5125,"count":36,"type":"SCALAR"},{"bufferView":27,"componentType":5126,"count":24,"type":"VEC3","min":[-2.41,0.0,-0.6299999999999999],"max":[-2.29,0.56,-0.51]},{"bufferView":28,"componentType":5126,"count":24,"type":"VEC3"},{"bufferView":29,"componentType":5125,"count":36,"type":"SCALAR"},{"bufferView":30,"componentType":5126,"count":24,"type":"VEC3","min":[-0.71,0.0,-1.09],"max":[-0.5900000000000001,0.56,-0.97]},{"bufferView":31,"componentType":5126,"count":24,"type":"VEC3"},{"bufferView":32,"componentType":5125,"count":36,"type":"SCALAR"},{"bufferView":33,"componentType":5126,"count":24,"type":"VEC3","min":[-0.71,0.0,-0.6299999999999999],"max":[-0.5900000000000001,0.56,-0.51]},{"bufferView":34,"componentType":5126,"count":24,"type":"VEC3"},{"bufferView":35,"componentType":5125,"count":36,"type":"SCALAR"},{"bufferView":36,"componentType":5126,"count":24,"type":"VEC3","min":[0.56,0.0,-3.7],"max":[0.6799999999999999,1.36,-3.58]},{"bufferView":37,"componentType":5126,"count":24,"type":"VEC3"},{"bufferView":38,"componentType":5125,"count":36,"type":"SCALAR"},{"bufferView":39,"componentType":5126,"count":24,"type":"VEC3","min":[0.56,0.0,-2.82],"max":[0.6799999999999999,1.36,-2.6999999999999997]},{"bufferView":40,"componentType":5126,"count":24,"type":"VEC3"},{"bufferView":41,"componentType":5125,"count":36,"type":"SCALAR"},{"bufferView":42,"componentType":5126,"count":24,"type":"VEC3","min":[1.72,0.0,-3.7],"max":[1.84,1.36,-3.58]},{"bufferView":43,"componentType":5126,"count":24,"type":"VEC3"},{"bufferView":44,"componentType":5125,"count":36,"type":"SCALAR"},{"bufferView":45,"componentType":5126,"count":24,"type":"VEC3","min":[1.72,0.0,-2.82],"max":[1.84,1.36,-2.6999999999999997]},{"bufferView":46,"componentType":5126,"count":24,"type":"VEC3"},{"bufferView":47,"componentType":5125,"count":36,"type":"SCALAR"},{"bufferView":48,"componentType":5126,"count":24,"type":"VEC3","min":[4.35,0.0,-2.44],"max":[4.77,0.32,-2.32]},{"bufferView":49,"componentType":5126,"count":24,"type":"VEC3"},{"bufferView":50,"componentType":5125,"count":36,"type":"SCALAR"},{"bufferView":51,"componentType":5126,"count":24,"type":"VEC3","min":[4.35,0.0,-1.04],"max":[4.77,0.32,-0.9199999999999999]},{"bufferView":52,"componentType":5126,"count":24,"type":"VEC3"},{"bufferView":53,"componentType":5125,"count":36,"type":"SCALAR"},{"bufferView":54,"componentType":5126,"count":24,"type":"VEC3","min":[4.1499999999999995,0.89,-2.19],"max":[4.21,0.9500000000000001,-1.97]},{"bufferView":55,"componentType":5126,"count":24,"type":"VEC3"},{"bufferView":56,"componentType":5125,"count":36,"type":"SCALAR"},{"bufferView":57,"componentType":5126,"count":24,"type":"VEC3","min":[4.1499999999999995,0.89,-1.3900000000000001],"max":[4.21,0.9500000000000001,-1.17]},{"bufferView":58,"componentType":5126,"count":24,"type":"VEC3"},{"bufferView":59,"componentType":5125,"count":36,"type":"SCALAR"},{"bufferView":60,"componentType":5126,"count":24,"type":"VEC3","min":[0.07500000000000018,0.865,-5.9],"max":[4.125,1.015,-5.66]},{"bufferView":61,"componentType":5126,"count":24,"type":"VEC3"},{"bufferView":62,"componentType":5125,"count":36,"type":"SCALAR"},{"bufferView":63,"componentType":5126,"count":24,"type":"VEC3","min":[0.07500000000000018,3.9849999999999994,-5.9],"max":[4.125,4.135,-5.66]},{"bufferView":64,"componentType":5126,"count":24,"type":"VEC3"},{"bufferView":65,"componentType":5125,"count":36,"type":"SCALAR"},{"bufferView":66,"componentType":5126,"count":24,"type":"VEC3","min":[0.045,0.875,-5.9],"max":[0.195,4.125,-5.66]},{"bufferView":67,"componentType":5126,"count":24,"type":"VEC3"},{"bufferView":68,"componentType":5125,"count":36,"type":"SCALAR"},{"bufferView":69,"componentType":5126,"count":24,"type":"VEC3","min":[4.005,0.875,-5.9],"max":[4.155,4.125,-5.66]},{"bufferView":70,"componentType":5126,"count":24,"type":"VEC3"},{"bufferView":71,"componentType":5125,"count":36,"type":"SCALAR"},{"bufferView":72,"componentType":5126,"count":24,"type":"VEC3","min":[2.06,0.99,-5.87],"max":[2.14,4.01,-5.69]},{"bufferView":73,"componentType":5126,"count":24,"type":"VEC3"},{"bufferView":74,"componentType":5125,"count":36,"type":"SCALAR"},{"bufferView":75,"componentType":5126,"count":24,"type":"VEC3","min":[0.20000000000000018,2.625,-5.87],"max":[4.0,2.6950000000000003,-5.69]},{"bufferView":76,"componentType":5126,"count":24,"type":"VEC3"},{"bufferView":77,"componentType":5125,"count":36,"type":"SCALAR"},{"bufferView":78,"componentType":5126,"count":24,"type":"VEC3","min":[-0.18,0.8249999999999997,-5.66],"max":[0.14,4.275,-5.5]},{"bufferView":79,"componentType":5126,"count":24,"type":"VEC3"},{"bufferView":80,"componentType":5125,"count":36,"type":"SCALAR"},{"bufferView":81,"componentType":5126,"count":24,"type":"VEC3","min":[4.06,0.8249999999999997,-5.66],"max":[4.38,4.275,-5.5]},{"bufferView":82,"componentType":5126,"count":24,"type":"VEC3"},{"bufferView":83,"componentType":5125,"count":36,"type":"SCALAR"},{"bufferView":84,"componentType":5126,"count":24,"type":"VEC3","min":[-3.7550000000000003,0.07999999999999985,-3.285],"max":[-3.685,2.7800000000000002,-3.215]},{"bufferView":85,"componentType":5126,"count":24,"type":"VEC3"},{"bufferView":86,"componentType":5125,"count":36,"type":"SCALAR"},{"bufferView":87,"componentType":5126,"count":24,"type":"VEC3","min":[-4.0600000000000005,0.020000000000000004,-3.59],"max":[-3.3800000000000003,0.14,-2.91]},{"bufferView":88,"componentType":5126,"count":24,"type":"VEC3"},{"bufferView":89,"componentType":5125,"count":36,"type":"SCALAR"},{"bufferView":90,"componentType":5126,"count":24,"type":"VEC3","min":[4.45,1.45,-1.21],"max":[4.510000000000001,1.8699999999999999,-1.15]},{"bufferView":91,"componentType":5126,"count":24,"type":"VEC3"},{"bufferView":92,"componentType":5125,"count":36,"type":"SCALAR"},{"bufferView":93,"componentType":5126,"count":24,"type":"VEC3","min":[-0.79,0.6849999999999999,-1.66],"max":[-0.10999999999999999,0.795,-1.18]},{"bufferView":94,"componentType":5126,"count":24,"type":"VEC3"},{"bufferView":95,"componentType":5125,"count":36,"type":"SCALAR"},{"bufferView":96,"componentType":5126,"count":24,"type":"VEC3","min":[-0.71,0.8099999999999999,-1.635],"max":[-0.13,0.91,-1.2049999999999998]},{"bufferView":97,"componentType":5126,"count":24,"type":"VEC3"},{"bufferView":98,"componentType":5125,"count":36,"type":"SCALAR"},{"bufferView":99,"componentType":5126,"count":48,"type":"VEC3","min":[4.300000000000001,1.45,-2.35],"max":[4.66,1.95,-1.99]},{"bufferView":100,"componentType":5126,"count":48,"type":"VEC3"},{"bufferView":101,"componentType":5125,"count":72,"type":"SCALAR"},{"bufferView":102,"componentType":5126,"count":24,"type":"VEC3","min":[3.4400000000000004,0.010000000000000009,-4.91],"max":[3.96,0.59,-4.390000000000001]},{"bufferView":103,"componentType":5126,"count":24,"type":"VEC3"},{"bufferView":104,"componentType":5125,"count":36,"type":"SCALAR"},{"bufferView":105,"componentType":5126,"count":24,"type":"VEC3","min":[3.665,0.5700000000000001,-4.6850000000000005],"max":[3.7350000000000003,1.47,-4.615]},{"bufferView":106,"componentType":5126,"count":24,"type":"VEC3"},{"bufferView":107,"componentType":5125,"count":36,"type":"SCALAR"},{"bufferView":108,"componentType":5126,"count":24,"type":"VEC3","min":[3.2,1.08,-4.760000000000001],"max":[3.7,1.1600000000000001,-4.54]},{"bufferView":109,"componentType":5126,"count":24,"type":"VEC3"},{"bufferView":110,"componentType":5125,"count":36,"type":"SCALAR"},{"bufferView":111,"componentType":5126,"count":24,"type":"VEC3","min":[3.6900000000000004,1.27,-4.7299999999999995],"max":[4.21,1.35,-4.53]},{"bufferView":112,"componentType":5126,"count":24,"type":"VEC3"},{"bufferView":113,"componentType":5125,"count":36,"type":"SCALAR"},{"bufferView":114,"componentType":5126,"count":24,"type":"VEC3","min":[3.32,1.47,-4.77],"max":[3.78,1.55,-4.57]},{"bufferView":115,"componentType":5126,"count":24,"type":"VEC3"},{"bufferView":116,"componentType":5125,"count":36,"type":"SCALAR"},{"bufferView":117,"componentType":5126,"count":24,"type":"VEC3","min":[3.67,1.66,-4.7299999999999995],"max":[4.09,1.74,-4.55]},{"bufferView":118,"componentType":5126,"count":24,"type":"VEC3"},{"bufferView":119,"componentType":5125,"count":36,"type":"SCALAR"},{"bufferView":120,"componentType":5126,"count":48,"type":"VEC3","min":[-4.2,0.020000000000000018,-1.56],"max":[-3.44,0.6,-0.7999999999999999]},{"bufferView":121,"componentType":5126,"count":48,"type":"VEC3"},{"bufferView":122,"componentType":5125,"count":72,"type":"SCALAR"},{"bufferView":123,"componentType":5126,"count":24,"type":"VEC3","min":[4.26,1.49,-2.02],"max":[4.68,1.57,-1.42]},{"bufferView":124,"componentType":5126,"count":24,"type":"VEC3"},{"bufferView":125,"componentType":5125,"count":36,"type":"SCALAR"},{"bufferView":126,"componentType":5126,"count":24,"type":"VEC3","min":[4.279999999999999,1.5850000000000002,-2.02],"max":[4.66,1.655,-1.5]},{"bufferView":127,"componentType":5126,"count":24,"type":"VEC3"},{"bufferView":128,"componentType":5125,"count":36,"type":"SCALAR"}]}
