{"asset":{"version":"2.0","generator":"Toaster sunset-room asset generator"},"scene":0,"scenes":[{"nodes":[0]}],"nodes":[{"name":"SunsetRoomLampShades","mesh":0}],"meshes":[{"name":"SunsetRoomLampShades","primitives":[{"attributes":{"POSITION":0,"NORMAL":1},"indices":2,"material":2,"mode":4,"extras":{"name":"floor_lamp_shade"}},{"attributes":{"POSITION":3,"NORMAL":4},"indices":5,"material":3,"mode":4,"extras":{"name":"table_lamp_shade"}}]}],"materials":[{"name":"wood","pbrMetallicRoughness":{"baseColorFactor":[0.22,0.075,0.025,1.0],"roughnessFactor":0.8}},{"name":"rust","pbrMetallicRoughness":{"baseColorFactor":[0.46,0.12,0.055,1.0],"roughnessFactor":0.8}},{"name":"cream","pbrMetallicRoughness":{"baseColorFactor":[0.78,0.66,0.5,1.0],"roughnessFactor":0.8}},{"name":"linen","pbrMetallicRoughness":{"baseColorFactor":[0.56,0.42,0.29,1.0],"roughnessFactor":0.8}},{"name":"brass","pbrMetallicRoughness":{"baseColorFactor":[0.62,0.34,0.08,1.0],"roughnessFactor":0.8}},{"name":"rug","pbrMetallicRoughness":{"baseColorFactor":[0.24,0.1,0.065,1.0],"roughnessFactor":0.8}},{"name":"book_blue","pbrMetallicRoughness":{"baseColorFactor":[0.045,0.14,0.3,1.0],"roughnessFactor":0.8}},{"name":"book_ochre","pbrMetallicRoughness":{"baseColorFactor":[0.58,0.29,0.045,1.0],"roughnessFactor":0.8}},{"name":"ceramic","pbrMetallicRoughness":{"baseColorFactor":[0.18,0.3,0.34,1.0],"roughnessFactor":0.8}},{"name":"leaf","pbrMetallicRoughness":{"baseColorFactor":[0.055,0.2,0.085,1.0],"roughnessFactor":0.8}},{"name":"dark","pbrMetallicRoughness":{"baseColorFactor":[0.035,0.025,0.022,1.0],"roughnessFactor":0.8}}],"buffers":[{"byteLength":3840,"uri":"data:application/octet-stream;base64,"}],"bufferViews":[{"buffer":0,"byteOffset":0,"byteLength":768,"target":34962},{"buffer":0,"byteOffset":768,"byteLength":768,"target":34962},{"buffer":0,"byteOffset":1536,"byteLength":384,"target":34963},{"buffer":0,"byteOffset":1920,"byteLength":768,"target":34962},{"buffer":0,"byteOffset":2688,"byteLength":768,"target":34962},{"buffer":0,"byteOffset":3456,"byteLength":384,"target":34963}],"accessors":[{"bufferView":0,"componentType":5126,"count":64,"type":"VEC3","min":[-4.24,2.4499999999999997,-3.77],"max":[-3.2,3.07,-2.73]},{"bufferView":1,"componentType":5126,"count":64,"type":"VEC3"},{"bufferView":2,"componentType":5125,"count":96,"type":"SCALAR"},{"bufferView":3,"componentType":5126,"count":64,"type":"VEC3","min":[4.12,1.71,-1.54],"max":[4.840000000000001,2.13,-0.82]},{"bufferView":4,"componentType":5126,"count":64,"type":"VEC3"},{"bufferView":5,"componentType":5125,"count":96,"type":"SCALAR"}]}
