{
  "asset": {
    "version": "2.0",
    "generator": "Toaster test fixture"
  },
  "scene": 0,
  "scenes": [
    { "nodes": [0] }
  ],
  "nodes": [
    {
      "mesh": 0,
      "translation": [0.0, 0.0, -2.0],
      "scale": [0.75, 0.75, 0.75]
    }
  ],
  "meshes": [
    {
      "name": "Tetrahedron",
      "primitives": [
        {
          "attributes": { "POSITION": 0 },
          "indices": 1,
          "mode": 4
        }
      ]
    }
  ],
  "accessors": [
    {
      "bufferView": 0,
      "componentType": 5126,
      "count": 4,
      "type": "VEC3",
      "min": [-1.0, -1.0, -1.0],
      "max": [1.0, 1.0, 1.0]
    },
    {
      "bufferView": 1,
      "componentType": 5123,
      "count": 12,
      "type": "SCALAR"
    }
  ],
  "bufferViews": [
    { "buffer": 0, "byteOffset": 0, "byteLength": 48, "target": 34962 },
    { "buffer": 0, "byteOffset": 48, "byteLength": 24, "target": 34963 }
  ],
  "buffers": [
    {
      "byteLength": 72,
      "uri": "data:application/octet-stream;base64,"
    }
  ]
}
