{
  "asset": {
    "version": "2.0",
    "generator": "Toaster benchmark fixture generator"
  },
  "scene": 0,
  "scenes": [
    {
      "nodes": [
        0
      ]
    }
  ],
  "nodes": [
    {
      "mesh": 0
    }
  ],
  "meshes": [
    {
      "name": "BenchmarkTerrain32",
      "primitives": [
        {
          "attributes": {
            "POSITION": 0,
            "NORMAL": 1
          },
          "indices": 2,
          "mode": 4
        }
      ]
    }
  ],
  "accessors": [
    {
      "bufferView": 0,
      "componentType": 5126,
      "count": 1089,
      "type": "VEC3",
      "min": [
        -4.0,
        -0.16,
        -4.0
      ],
      "max": [
        4.0,
        0.16,
        4.0
      ]
    },
    {
      "bufferView": 1,
      "componentType": 5126,
      "count": 1089,
      "type": "VEC3"
    },
    {
      "bufferView": 2,
      "componentType": 5123,
      "count": 6144,
      "type": "SCALAR"
    }
  ],
  "bufferViews": [
    {
      "buffer": 0,
      "byteOffset": 0,
      "byteLength": 13068,
      "target": 34962
    },
    {
      "buffer": 0,
      "byteOffset": 13068,
      "byteLength": 13068,
      "target": 34962
    },
    {
      "buffer": 0,
      "byteOffset": 26136,
      "byteLength": 12288,
      "target": 34963
    }
  ],
  "buffers": [
    {
      "byteLength": 38424,
      "uri": "data:application/octet-stream;base64,"
    }
  ]
}
